<?xml version="1.0" encoding="utf-8"?>
<!-- Generator: Adobe Illustrator 21.1.0, SVG Export Plug-In . SVG Version: 6.00 Build 0)  -->
<svg version="1.1" baseProfile="tiny" id="Layer_1" xmlns="http://www.w3.org/2000/svg" xmlns:xlink="http://www.w3.org/1999/xlink"
	 x="0px" y="0px" viewBox="0 0 480 845" xml:space="preserve">
<linearGradient id="XMLID_3_" gradientUnits="userSpaceOnUse" x1="239.634" y1="835" x2="239.634" y2="10.9985">
	<stop  offset="0" style="stop-color:#F15A24"/>
	<stop  offset="1" style="stop-color:#FBB03B"/>
</linearGradient>
<linearGradient id="XMLID_4_" gradientUnits="userSpaceOnUse" x1="239.634" y1="845.5" x2="239.634" y2="0.3801">
	<stop  offset="0" style="stop-color:#C8C8C8"/>
	<stop  offset="1" style="stop-color:#F0F0F0"/>
</linearGradient>
<path id="XMLID_1_" fill="url(#XMLID_3_)" stroke="url(#XMLID_4_)" stroke-width="21" stroke-miterlimit="10" d="M78,835h321
	c36.974-23.177,67.274-64.998,67.79-116.255c0.422-41.986-16.099-82.921-44.204-115.42c-28.105-32.498-63.923-58.069-97.858-85.148
	c-11.713-9.347-23.402-19.085-31.639-31.303c-14.279-21.181-18.795-27.833-20.82-52.874c-1.017-12.577-1.417-27.594,1-40
	c7.938-40.749,50.461-83.908,85.792-108.452c32.785-22.777,63.873-48.717,83.208-82.548c34.78-60.851,22.589-142.893-28.948-192.001
	L413,11H66l-0.052-0.001C14.412,60.107,2.22,142.149,37,203c19.336,33.831,50.424,59.771,83.209,82.548
	C155.539,310.092,198.062,353.251,206,394c2.417,12.406,2.017,27.423,1,40c-2.025,25.04-6.541,31.692-20.82,52.874
	c-8.236,12.218-19.926,21.956-31.639,31.303c-33.935,27.079-69.753,52.65-97.858,85.148c-28.104,32.499-44.626,73.434-44.204,115.42
	C12.994,770.002,41.026,811.823,78,835z"/>
<g>
	<linearGradient id="SVGID_1_" gradientUnits="userSpaceOnUse" x1="241.6782" y1="470.9049" x2="241.6782" y2="160.9044">
		<stop  offset="0" style="stop-color:#C3B667"/>
		<stop  offset="1" style="stop-color:#FFC8A0"/>
	</linearGradient>
	<path fill="url(#SVGID_1_)" d="M234,394c1.737,15.198,8,17-1,48c-1.239,4.268-7.053,10.62-2,23c4.866,6.675,16.444,8.987,21,0
		c3.314-6.537,0.24-16.149-1.96-23.141c-2.2-6.992-4.727-13.536-5.04-20.859c-0.401-9.405,0.354-18.607,3-28
		c7.958-28.252,27.438-53.446,48-73c21.764-20.698,46.148-37.673,68.374-56.382C394.206,238.504,417.897,211.713,439,182
		c1.038-1.461,2.174-3.216,2-5c-0.26-2.657-1.368-2.448-4-2c-15.635,2.662-29.904,8.56-45.609,12.069
		c-35.209,7.868-70.938,7.814-106.908,7.269C250.401,193.821,223.731,184.867,185,179c-9.986-1.513-20.823-2.087-30-6
		c-4.553-1.941-28.616-7.881-35-9c-13.459-2.359-32.342-3.438-46-3c-8.671,0.278-22.272,2.288-28,9c-8.905,10.436,0,16,10,33
		c10.234,17.398,47,51,88,83C177.455,312.111,230,359,234,394z"/>
	<linearGradient id="SVGID_2_" gradientUnits="userSpaceOnUse" x1="239.3914" y1="825" x2="239.3914" y2="634.2901">
		<stop  offset="0" style="stop-color:#C3B667"/>
		<stop  offset="1" style="stop-color:#FFC8A0"/>
	</linearGradient>
	<path fill="url(#SVGID_2_)" d="M108,825c-19.43-10.825-39.139-25.727-53-42.546c-17.438-21.16-20.58-48.069-23-76.583
		c44.908-1.017,84.517-0.642,124.744,1.193c11.739,0.536,23.547,0.411,35.214-0.924c9.767-1.117,19.624-3.407,27.783-8.605
		c8.159-5.197,14.411-13.704,14.665-23.003c0.323-11.778-7.187-21.293-5.406-32.954c-0.032-5.86,15.974-11.673,22.782-2.518
		c5.531,7.438,1.072,15.533-2.782,23.318c-5.68,11.472,1.69,25.31,12.785,32.409c11.095,7.1,25.036,8.915,38.432,9.073
		c21.816,0.258,43.461-3.345,65.233-4.675c27.121-1.657,54.481,0.236,81.058,5.607c1.815,23.77-5.562,47.683-16.508,69.151
		c-12.622,24.752-38.286,39.719-58,51.055H108z"/>
</g>
<g>
</g>
<g>
</g>
<g>
</g>
<g>
</g>
<g>
</g>
<g>
</g>
<g>
</g>
<g>
</g>
<g>
</g>
<g>
</g>
<g>
</g>
<g>
</g>
<g>
</g>
<g>
</g>
<g>
</g>
</svg>
