<?xml version="1.0" encoding="utf-8"?>
<!-- Generator: Adobe Illustrator 21.1.0, SVG Export Plug-In . SVG Version: 6.00 Build 0)  -->
<svg version="1.1" baseProfile="tiny" id="Layer_1" xmlns="http://www.w3.org/2000/svg" xmlns:xlink="http://www.w3.org/1999/xlink"
	 x="0px" y="0px" viewBox="0 0 480 845" xml:space="preserve">
<path d="M234,394c1.737,15.198,8,17-1,48c-1.239,4.268-7.053,10.62-2,23c4.866,6.675,16.444,8.987,21,0
	c3.314-6.537,0.24-16.149-1.96-23.141c-2.2-6.992-4.727-13.536-5.04-20.859c-0.401-9.405,0.354-18.607,3-28
	c7.958-28.252,27.438-53.446,48-73c21.764-20.698,46.148-37.673,68.374-56.382C394.206,238.504,417.897,211.713,439,182
	c1.038-1.461,2.174-3.216,2-5c-0.26-2.657-1.368-2.448-4-2c-15.635,2.662-29.904,8.56-45.609,12.069
	c-35.209,7.868-70.938,7.814-106.908,7.269C250.401,193.821,223.731,184.867,185,179c-9.986-1.513-20.823-2.087-30-6
	c-4.553-1.941-28.616-7.881-35-9c-13.459-2.359-32.342-3.438-46-3c-8.671,0.278-22.272,2.288-28,9c-8.905,10.436,0,16,10,33
	c10.234,17.398,47,51,88,83C177.455,312.111,230,359,234,394z"/>
<path d="M108,836c-19.43-11.449-39.139-27.21-53-45c-17.438-22.38-20.58-50.842-23-81c44.908-1.076,84.517-0.679,124.744,1.262
	c11.739,0.566,23.547,0.435,35.214-0.977c9.767-1.182,19.624-3.604,27.783-9.101c8.159-5.497,14.411-14.495,14.665-24.329
	c0.323-12.457-7.187-22.521-5.406-34.854c-0.032-6.198,15.974-12.346,22.782-2.663c5.531,7.867,1.072,16.429-2.782,24.663
	c-5.68,12.134,1.69,26.769,12.785,34.279c11.095,7.509,25.036,9.429,38.432,9.597c21.816,0.273,43.461-3.538,65.233-4.945
	c27.121-1.752,54.481,0.249,81.058,5.93c1.815,25.141-5.562,50.434-16.508,73.139c-12.622,26.18-38.286,42.01-58,54"/>
<path fill="none" stroke="#000000" stroke-width="20" stroke-miterlimit="10" d="M78,835h321
	c36.974-23.177,67.274-64.998,67.79-116.255c0.422-41.986-16.099-82.921-44.204-115.42c-28.105-32.498-63.923-58.069-97.858-85.148
	c-11.713-9.347-23.402-19.085-31.639-31.303c-14.279-21.181-18.795-27.833-20.82-52.874c-1.017-12.577-1.417-27.594,1-40
	c7.938-40.749,50.461-83.908,85.792-108.452c32.785-22.777,63.873-48.717,83.208-82.548c34.78-60.851,22.589-142.893-28.948-192.001
	L413,11H66l-0.052-0.001C14.412,60.107,2.22,142.149,37,203c19.336,33.831,50.424,59.771,83.209,82.548
	C155.539,310.092,198.062,353.251,206,394c2.417,12.406,2.017,27.423,1,40c-2.025,25.04-6.541,31.692-20.82,52.874
	c-8.236,12.218-19.926,21.956-31.639,31.303c-33.935,27.079-69.753,52.65-97.858,85.148c-28.104,32.499-44.626,73.434-44.204,115.42
	C12.994,770.002,41.026,811.823,78,835z"/>
<g>
</g>
<g>
</g>
<g>
</g>
<g>
</g>
<g>
</g>
<g>
</g>
<g>
</g>
<g>
</g>
<g>
</g>
<g>
</g>
<g>
</g>
<g>
</g>
<g>
</g>
<g>
</g>
<g>
</g>
</svg>
